<svg width="38" height="44" viewBox="0 0 38 44" fill="none" xmlns="http://www.w3.org/2000/svg">
<g filter="url(#filter0_d_2_35)">
<path d="M7.77766 32.4124C7.77766 33.5201 8.67649 34.4242 9.78236 34.4242H12.0741V40.1235C12.0741 41.5673 13.227 42.746 14.6435 42.746C16.0647 42.746 17.2129 41.572 17.2129 40.1235V34.4195H21.2129V40.1188C21.2129 41.5625 22.3658 42.7412 23.7823 42.7412C25.2035 42.7412 26.3517 41.5673 26.3517 40.1188V34.4195H28.6435C29.7493 34.4195 30.6481 33.5153 30.6481 32.4077V13.7003H7.77766V32.4124ZM24.5823 4.00577L26.6952 0.92889C26.8176 0.74902 26.7893 0.5076 26.6246 0.389258C26.4599 0.27565 26.2246 0.332454 26.1023 0.51233L23.9094 3.71228C22.4647 3.13951 20.8552 2.82235 19.1658 2.82235C17.4764 2.82235 15.867 3.13951 14.4223 3.71228L12.2294 0.51707C12.1071 0.337188 11.8718 0.27565 11.7071 0.393992C11.5423 0.5076 11.5141 0.74428 11.6365 0.93363L13.7494 4.0105C10.3894 5.58207 8.03648 8.55954 7.7353 12.0388H30.6058C30.2952 8.5548 27.9376 5.57734 24.5823 4.00577ZM14.3376 8.85776C14.0873 8.85776 13.8425 8.78308 13.6343 8.64316C13.4262 8.50324 13.2639 8.30437 13.1681 8.0717C13.0723 7.83902 13.0472 7.58299 13.0961 7.33599C13.1449 7.08898 13.2655 6.86209 13.4425 6.68401C13.6196 6.50593 13.8451 6.38465 14.0907 6.33552C14.3362 6.28639 14.5908 6.3116 14.8221 6.40798C15.0534 6.50436 15.2511 6.66757 15.3902 6.87697C15.5293 7.08637 15.6035 7.33256 15.6035 7.5844C15.6026 7.92185 15.469 8.24522 15.2318 8.48383C14.9946 8.72244 14.6731 8.85688 14.3376 8.85776ZM24.1446 8.85776C23.8943 8.85776 23.6495 8.78308 23.4414 8.64316C23.2332 8.50324 23.0709 8.30437 22.9751 8.0717C22.8793 7.83902 22.8542 7.58299 22.9031 7.33599C22.9519 7.08898 23.0725 6.86209 23.2495 6.68401C23.4266 6.50593 23.6521 6.38465 23.8977 6.33552C24.1432 6.28639 24.3978 6.3116 24.6291 6.40798C24.8604 6.50436 25.0581 6.66757 25.1972 6.87697C25.3363 7.08637 25.4105 7.33256 25.4105 7.5844C25.4097 7.92185 25.276 8.24522 25.0388 8.48383C24.8016 8.72244 24.4801 8.85688 24.1446 8.85776ZM34.6575 13.6245C33.2364 13.6245 32.0881 14.7985 32.0881 16.247V26.4906C32.0881 27.9344 33.2411 29.113 34.6575 29.113C36.0787 29.113 37.2269 27.9391 37.2269 26.4906V16.2423C37.2317 14.7938 36.0834 13.6245 34.6575 13.6245ZM3.66473 13.6245C2.24356 13.6245 1.09534 14.7985 1.09534 16.247V26.4906C1.09534 27.9344 2.24827 29.113 3.66473 29.113C5.0859 29.113 6.23413 27.9391 6.23413 26.4906V16.2423C6.23413 14.7938 5.0812 13.6245 3.66473 13.6245Z" fill="url(#paint0_linear_2_35)"/>
</g>
<defs>
<filter id="filter0_d_2_35" x="-2.90466" y="0.330566" width="44.1316" height="50.4154" filterUnits="userSpaceOnUse" color-interpolation-filters="sRGB">
<feFlood flood-opacity="0" result="BackgroundImageFix"/>
<feColorMatrix in="SourceAlpha" type="matrix" values="0 0 0 0 0 0 0 0 0 0 0 0 0 0 0 0 0 0 127 0" result="hardAlpha"/>
<feOffset dy="4"/>
<feGaussianBlur stdDeviation="2"/>
<feComposite in2="hardAlpha" operator="out"/>
<feColorMatrix type="matrix" values="0 0 0 0 0 0 0 0 0 0 0 0 0 0 0 0 0 0 0.25 0"/>
<feBlend mode="normal" in2="BackgroundImageFix" result="effect1_dropShadow_2_35"/>
<feBlend mode="normal" in="SourceGraphic" in2="effect1_dropShadow_2_35" result="shape"/>
</filter>
<linearGradient id="paint0_linear_2_35" x1="10.2436" y1="37.074" x2="29.4955" y2="17.4784" gradientUnits="userSpaceOnUse">
<stop stop-color="#AC39FF"/>
<stop offset="1" stop-color="#CF8DFF"/>
</linearGradient>
</defs>
</svg>
