<svg width="37" height="46" viewBox="0 0 37 46" fill="none" xmlns="http://www.w3.org/2000/svg">
<path d="M30.7226 24.5366C30.7017 20.8747 32.3135 18.1148 35.5683 16.0798C33.7479 13.3951 30.9938 11.9185 27.3635 11.6339C23.9261 11.3547 20.1654 13.6957 18.7883 13.6957C17.3331 13.6957 14.0053 11.7305 11.3868 11.7305C5.98303 11.8164 0.240204 16.1657 0.240204 25.0145C0.240204 27.6294 0.704429 30.3302 1.63287 33.1116C2.87429 36.7735 7.34962 45.7458 12.018 45.6009C14.4591 45.5418 16.1856 43.8182 19.3621 43.8182C22.4448 43.8182 24.0409 45.6009 26.7636 45.6009C31.4737 45.5311 35.5213 37.3749 36.7001 33.7022C30.3835 30.6363 30.7226 24.7245 30.7226 24.5366ZM25.2406 8.15986C27.8851 4.92747 27.6451 1.98502 27.5669 0.927246C25.2301 1.06685 22.5282 2.56492 20.9895 4.40663C19.2943 6.38258 18.298 8.82567 18.5119 11.5802C21.0364 11.7789 23.3419 10.4419 25.2406 8.15986Z" fill="url(#paint0_linear_2_33)"/>
<defs>
<linearGradient id="paint0_linear_2_33" x1="6.82687" y1="47.3944" x2="29.1728" y2="16.7977" gradientUnits="userSpaceOnUse">
<stop stop-color="#AC39FF"/>
<stop offset="1" stop-color="#C576FF"/>
</linearGradient>
</defs>
</svg>
