<svg width="29" height="23" viewBox="0 0 29 23" fill="none" xmlns="http://www.w3.org/2000/svg">
<path d="M2.52246 9.85657C2.06999 9.85657 1.63604 10.0291 1.3161 10.3364C0.996151 10.6436 0.816406 11.0603 0.816406 11.4947C0.816406 11.9292 0.996151 12.3459 1.3161 12.6531C1.63604 12.9603 2.06999 13.1329 2.52246 13.1329H22.2888L14.963 20.1641C14.8044 20.3164 14.6785 20.4972 14.5927 20.6962C14.5069 20.8952 14.4627 21.1085 14.4627 21.3239C14.4627 21.5393 14.5069 21.7526 14.5927 21.9516C14.6785 22.1506 14.8044 22.3314 14.963 22.4838C15.1216 22.6361 15.3099 22.7569 15.5172 22.8393C15.7244 22.9218 15.9465 22.9642 16.1709 22.9642C16.3952 22.9642 16.6173 22.9218 16.8246 22.8393C17.0318 22.7569 17.2201 22.6361 17.3788 22.4838L27.6151 12.6546C27.7739 12.5024 27.9 12.3216 27.986 12.1226C28.072 11.9236 28.1163 11.7102 28.1163 11.4947C28.1163 11.2793 28.072 11.0659 27.986 10.8669C27.9 10.6679 27.7739 10.4871 27.6151 10.3349L17.3788 0.505751C17.2201 0.353439 17.0318 0.232618 16.8246 0.150187C16.6173 0.067756 16.3952 0.0253296 16.1709 0.0253296C15.9465 0.0253296 15.7244 0.067756 15.5172 0.150187C15.3099 0.232618 15.1216 0.353439 14.963 0.505751C14.8044 0.658064 14.6785 0.838886 14.5927 1.0379C14.5069 1.2369 14.4627 1.4502 14.4627 1.6656C14.4627 1.881 14.5069 2.0943 14.5927 2.2933C14.6785 2.49231 14.8044 2.67313 14.963 2.82544L22.2888 9.85657H2.52246Z" fill="black"/>
</svg>
