<svg width="23" height="24" viewBox="0 0 23 24" fill="none" xmlns="http://www.w3.org/2000/svg">
<g clip-path="url(#clip0_2_708)">
<path d="M3.65933 10.1782C3.70078 9.66166 3.93526 9.17972 4.31607 8.82833C4.69687 8.47693 5.19607 8.28186 5.71423 8.28197H18.1405C18.6587 8.28186 19.1579 8.47693 19.5387 8.82833C19.9195 9.17972 20.154 9.66166 20.1954 10.1782L21.023 20.4836C21.0457 20.7672 21.0095 21.0524 20.9166 21.3214C20.8238 21.5903 20.6762 21.8371 20.4833 22.0462C20.2903 22.2553 20.0562 22.4222 19.7956 22.5363C19.535 22.6505 19.2536 22.7095 18.9691 22.7096H4.88567C4.60116 22.7095 4.31975 22.6505 4.05916 22.5363C3.79856 22.4222 3.56443 22.2553 3.37149 22.0462C3.17856 21.8371 3.03101 21.5903 2.93812 21.3214C2.84524 21.0524 2.80904 20.7672 2.8318 20.4836L3.65933 10.1782Z" stroke="black" stroke-width="2" stroke-linecap="round" stroke-linejoin="round"/>
<path d="M15.5393 11.9917V6.83896C15.5393 5.74569 15.105 4.6972 14.3319 3.92414C13.5589 3.15108 12.5104 2.71678 11.4171 2.71678C10.3238 2.71678 9.27534 3.15108 8.50228 3.92414C7.72922 4.6972 7.29492 5.74569 7.29492 6.83896V11.9917" stroke="black" stroke-width="2" stroke-linecap="round" stroke-linejoin="round"/>
</g>
<defs>
<clipPath id="clip0_2_708">
<rect width="22" height="23" fill="white" transform="translate(0.97998 0.889999)"/>
</clipPath>
</defs>
</svg>
