<svg width="45" height="45" viewBox="0 0 45 45" fill="none" xmlns="http://www.w3.org/2000/svg">
<path d="M22.819 44.2732C34.9655 44.2732 44.8121 34.4266 44.8121 22.2801C44.8121 10.1336 34.9655 0.286926 22.819 0.286926C10.6725 0.286926 0.825806 10.1336 0.825806 22.2801C0.825806 34.4266 10.6725 44.2732 22.819 44.2732ZM22.819 3.4288C24.4402 3.4288 26.4054 4.91805 28.058 8.49823C28.644 9.77072 29.1546 11.2364 29.5662 12.8544H16.0718C16.4834 11.2364 16.9939 9.76912 17.5799 8.49823C19.2325 4.91805 21.1978 3.4288 22.819 3.4288ZM14.7286 7.18178C13.9589 8.84698 13.3211 10.7604 12.8419 12.8544H6.48904C8.66397 9.09472 12.0666 6.19803 16.1252 4.65099C15.5956 5.45733 15.1282 6.30285 14.7271 7.18021L14.7286 7.18178ZM12.2591 15.9963C11.9651 18.0779 11.8192 20.1778 11.8224 22.2801C11.8224 24.4574 11.9748 26.5687 12.2607 28.5638H5.04064C4.32827 26.5455 3.96541 24.4204 3.96768 22.2801C3.96768 20.0776 4.34472 17.9615 5.04064 15.9963H12.2607H12.2591ZM12.8404 31.7057C13.3195 33.7998 13.9573 35.7132 14.7255 37.3784C15.1386 38.2738 15.6052 39.1253 16.1236 39.9076C12.0659 38.3605 8.66395 35.4645 6.48904 31.7057H12.8435H12.8404ZM16.0718 31.7057H29.563C29.1942 33.2007 28.6894 34.6589 28.0549 36.0619C26.407 39.6421 24.4417 41.1313 22.819 41.1313C21.1962 41.1313 19.2325 39.6421 17.5799 36.0619C16.9454 34.6589 16.4406 33.2007 16.0718 31.7057ZM30.1992 28.5638H15.4355C15.1176 26.4844 14.9601 24.3836 14.9643 22.2801C14.9643 20.0698 15.1324 17.9568 15.4355 15.9963H30.2024C30.5056 17.9568 30.6737 20.0698 30.6737 22.2801C30.6737 24.4904 30.5056 26.6033 30.2024 28.5638H30.1992ZM32.7944 31.7057H39.1473C36.972 35.4648 33.5695 38.3608 29.5112 39.9076C30.0296 39.1253 30.4961 38.2738 30.9093 37.3784C31.6775 35.7132 32.3153 33.7998 32.7944 31.7057ZM40.5957 28.5638H33.3757C33.6616 26.5687 33.814 24.4574 33.814 22.2801C33.814 20.1027 33.6616 17.9914 33.3757 15.9963H40.5957C41.3086 18.0145 41.672 20.1396 41.6702 22.2801C41.6702 24.4825 41.2932 26.5986 40.5973 28.5638H40.5957ZM29.5127 4.65099C33.5714 6.19803 36.974 9.09472 39.1489 12.8544H32.7944C32.3153 10.7604 31.6775 8.84698 30.9093 7.18178C30.5082 6.30442 30.0408 5.4589 29.5112 4.65257L29.5127 4.65099Z" fill="url(#paint0_linear_2_42)"/>
<defs>
<linearGradient id="paint0_linear_2_42" x1="5.26994" y1="34.55" x2="41.0131" y2="8.21298" gradientUnits="userSpaceOnUse">
<stop stop-color="#FF0255"/>
<stop offset="1" stop-color="#FC9ABA"/>
</linearGradient>
</defs>
</svg>
