<svg width="71" height="34" viewBox="0 0 71 34" fill="none" xmlns="http://www.w3.org/2000/svg">
<path d="M52.9312 0.669006C47.1628 0.669006 42.5631 3.5036 39.7206 5.88256L39.6204 5.96679L38.0015 7.68853L41.5751 13.4337L44.2201 10.8393C46.9878 8.55286 50.0774 7.29641 52.9312 7.29641C58.6897 7.29641 63.3755 11.7561 63.3755 17.2375C63.3755 22.7189 58.6897 27.1786 52.9312 27.1786C44.1806 27.1786 38.233 15.8637 38.1737 15.7491C37.8293 15.0684 30.2868 0.669006 17.3641 0.669006C7.86969 0.669006 0.145142 8.10136 0.145142 17.2375C0.145142 26.3737 7.86969 33.806 17.3641 33.806C22.0147 33.806 26.5918 31.9959 30.6016 28.5704L30.6877 28.4958L32.2938 26.7865L28.7188 21.0414L26.0611 23.6481C23.292 25.9912 20.3647 27.1786 17.3641 27.1786C11.6056 27.1786 6.91982 22.7189 6.91982 17.2375C6.91982 11.7561 11.6056 7.29641 17.3641 7.29641C26.1147 7.29641 32.0623 18.6113 32.1216 18.7259C32.466 19.4066 40.0085 33.806 52.9312 33.806C62.4256 33.806 70.1502 26.3737 70.1502 17.2375C70.1502 8.10136 62.4256 0.669006 52.9312 0.669006Z" fill="url(#paint0_linear_2_50)"/>
<defs>
<linearGradient id="paint0_linear_2_50" x1="11.8166" y1="28.5539" x2="67.4292" y2="9.75533" gradientUnits="userSpaceOnUse">
<stop stop-color="#FF9F0F"/>
<stop offset="1" stop-color="#FFCC80"/>
</linearGradient>
</defs>
</svg>
