<svg width="16" height="17" viewBox="0 0 16 17" fill="none" xmlns="http://www.w3.org/2000/svg">
<g clip-path="url(#clip0_2_630)">
<path d="M15.3418 8.70557C15.3418 4.56343 11.9839 1.20557 7.8418 1.20557C3.69966 1.20557 0.341797 4.56343 0.341797 8.70557C0.341797 12.8477 3.69966 16.2056 7.8418 16.2056C11.9839 16.2056 15.3418 12.8477 15.3418 8.70557Z" fill="#1877F2"/>
<path d="M10.5686 11.0759L10.8966 8.95473H8.86043V7.57722C8.86043 6.99689 9.14491 6.43063 10.0572 6.43063H10.9823V4.6234C10.439 4.53529 9.88999 4.4872 9.33968 4.47949C7.66632 4.47949 6.56725 5.49622 6.56725 7.33558V8.95473H4.70312V11.0766H6.56725V16.2058H8.86043V11.0759H10.5686Z" fill="white"/>
</g>
<defs>
<clipPath id="clip0_2_630">
<rect width="16" height="16" fill="white" transform="translate(0 0.5)"/>
</clipPath>
</defs>
</svg>
