<svg width="16" height="17" viewBox="0 0 16 17" fill="none" xmlns="http://www.w3.org/2000/svg">
<g clip-path="url(#clip0_2_622)">
<path d="M15.3516 8.70557C15.3516 4.56343 11.9937 1.20557 7.85156 1.20557C3.70943 1.20557 0.351562 4.56343 0.351562 8.70557C0.351562 12.8477 3.70943 16.2056 7.85156 16.2056C11.9937 16.2056 15.3516 12.8477 15.3516 8.70557Z" fill="#FF0080"/>
<path d="M15.3516 8.70557C15.3516 4.56343 11.9937 1.20557 7.85156 1.20557C3.70943 1.20557 0.351562 4.56343 0.351562 8.70557C0.351562 12.8477 3.70943 16.2056 7.85156 16.2056C11.9937 16.2056 15.3516 12.8477 15.3516 8.70557Z" fill="url(#paint0_linear_2_622)"/>
<path d="M15.3516 8.70557C15.3516 4.56343 11.9937 1.20557 7.85156 1.20557C3.70943 1.20557 0.351562 4.56343 0.351562 8.70557C0.351562 12.8477 3.70943 16.2056 7.85156 16.2056C11.9937 16.2056 15.3516 12.8477 15.3516 8.70557Z" fill="url(#paint1_radial_2_622)"/>
<path d="M10.1698 5.89014C10.0682 5.89014 9.96893 5.92026 9.88448 5.97668C9.80003 6.03311 9.73421 6.11332 9.69534 6.20715C9.65647 6.30099 9.6463 6.40424 9.66612 6.50386C9.68593 6.60347 9.73485 6.69498 9.80666 6.76679C9.87848 6.83861 9.96999 6.88752 10.0696 6.90734C10.1692 6.92715 10.2725 6.91698 10.3663 6.87811C10.4601 6.83925 10.5403 6.77343 10.5968 6.68898C10.6532 6.60453 10.6833 6.50524 10.6833 6.40367C10.6833 6.26747 10.6292 6.13685 10.5329 6.04055C10.4366 5.94424 10.306 5.89014 10.1698 5.89014Z" fill="white"/>
<path d="M7.88744 6.54883C7.4608 6.54883 7.04374 6.67535 6.68902 6.91239C6.33429 7.14944 6.05783 7.48635 5.8946 7.88052C5.73136 8.2747 5.68868 8.70843 5.77196 9.12686C5.85525 9.54529 6.06074 9.92962 6.36247 10.2313C6.6642 10.5329 7.04859 10.7383 7.46705 10.8214C7.88551 10.9046 8.31923 10.8618 8.71335 10.6984C9.10748 10.535 9.4443 10.2585 9.68123 9.90366C9.91816 9.54886 10.0445 9.13176 10.0444 8.70512C10.0439 8.13329 9.81643 7.58504 9.41201 7.18075C9.0076 6.77647 8.45927 6.54919 7.88744 6.54883ZM7.88744 10.087C7.61409 10.0872 7.34686 10.0062 7.11951 9.85447C6.89217 9.7027 6.71494 9.48693 6.61024 9.23443C6.50554 8.98193 6.47808 8.70405 6.53133 8.43594C6.58457 8.16784 6.71613 7.92154 6.90936 7.72821C7.1026 7.53488 7.34883 7.4032 7.61691 7.34982C7.88499 7.29644 8.16288 7.32377 8.41543 7.42834C8.66798 7.53292 8.88385 7.71004 9.03573 7.93731C9.1876 8.16457 9.26866 8.43178 9.26866 8.70512C9.2683 9.0714 9.12269 9.42258 8.86376 9.68164C8.60483 9.9407 8.25371 10.0865 7.88744 10.087Z" fill="white"/>
<path d="M9.60031 13.0838H6.10298C5.40559 13.0831 4.73698 12.8057 4.24386 12.3126C3.75073 11.8195 3.47338 11.1508 3.47266 10.4534V6.95747C3.47338 6.26009 3.75073 5.59148 4.24386 5.09835C4.73698 4.60523 5.40559 4.32787 6.10298 4.32715H9.59894C10.2969 4.32697 10.9664 4.60393 11.4603 5.09715C11.9541 5.59037 12.232 6.2595 12.2327 6.95747V10.4534C12.232 11.1512 11.9543 11.8201 11.4607 12.3133C10.9672 12.8065 10.298 13.0836 9.60031 13.0838ZM6.10298 5.14921C5.62392 5.14975 5.16465 5.3403 4.82591 5.67904C4.48716 6.01778 4.29662 6.47706 4.29608 6.95611V10.4521C4.29626 10.9314 4.48664 11.391 4.82542 11.7301C5.16421 12.0691 5.62369 12.2598 6.10298 12.2604H9.59894C10.078 12.2598 10.5373 12.0693 10.876 11.7305C11.2148 11.3918 11.4053 10.9325 11.4058 10.4534V6.95747C11.4057 6.47842 11.2155 6.019 10.877 5.68C10.5385 5.341 10.0794 5.15011 9.60031 5.14921H6.10298Z" fill="white"/>
</g>
<defs>
<linearGradient id="paint0_linear_2_622" x1="4.74896" y1="1.6532" x2="9.49621" y2="14.9807" gradientUnits="userSpaceOnUse">
<stop stop-color="#4C68D6"/>
<stop offset="1" stop-color="#D43585" stop-opacity="0"/>
</linearGradient>
<radialGradient id="paint1_radial_2_622" cx="0" cy="0" r="1" gradientUnits="userSpaceOnUse" gradientTransform="translate(4.43467 18.1073) rotate(-59.6887) scale(16.346)">
<stop offset="0.0104167" stop-color="#FFF7AD"/>
<stop offset="0.255208" stop-color="#F7AC3E"/>
<stop offset="0.640625" stop-color="#F15A30" stop-opacity="0.39"/>
<stop offset="1" stop-color="#BD44B1" stop-opacity="0"/>
</radialGradient>
<clipPath id="clip0_2_622">
<rect width="16" height="16" fill="white" transform="translate(0 0.5)"/>
</clipPath>
</defs>
</svg>
