<svg width="16" height="17" viewBox="0 0 16 17" fill="none" xmlns="http://www.w3.org/2000/svg">
<g clip-path="url(#clip0_2_639)">
<path d="M15.3516 8.70557C15.3516 4.56343 11.9937 1.20557 7.85156 1.20557C3.70943 1.20557 0.351562 4.56343 0.351562 8.70557C0.351562 12.8477 3.70943 16.2056 7.85156 16.2056C11.9937 16.2056 15.3516 12.8477 15.3516 8.70557Z" fill="black"/>
<path d="M11.382 7.85504V6.46976C9.57116 6.3933 9.5129 4.74781 9.5129 4.59319V4.58154H8.1133V9.97678C8.11315 10.2099 8.03948 10.4371 7.90277 10.626C7.76606 10.8148 7.57328 10.9558 7.35185 11.0287C7.13042 11.1017 6.89161 11.103 6.66941 11.0324C6.44721 10.9618 6.25293 10.8229 6.11421 10.6356C5.97548 10.4481 5.89938 10.2218 5.89673 9.98866C5.89408 9.75553 5.96501 9.5275 6.09944 9.33701C6.23386 9.14652 6.42494 9.00328 6.64547 8.92765C6.86601 8.85203 7.10478 8.84788 7.32782 8.91579V7.48706C7.22059 7.4733 7.1126 7.46641 7.00449 7.46643C6.50799 7.46643 6.02264 7.61365 5.60982 7.8895C5.19699 8.16534 4.87523 8.5574 4.68523 9.01611C4.49523 9.47481 4.44551 9.97956 4.54238 10.4665C4.63924 10.9535 4.87833 11.4008 5.22941 11.7519C5.58049 12.103 6.02779 12.3421 6.51475 12.4389C7.00171 12.5358 7.50646 12.4861 7.96516 12.2961C8.42387 12.1061 8.81593 11.7843 9.09178 11.3715C9.36762 10.9587 9.51485 10.4733 9.51485 9.97678C9.51485 9.94158 9.51485 9.90663 9.51242 9.87192V7.2152C10.1569 7.8048 11.382 7.85504 11.382 7.85504Z" fill="#00F6EF"/>
<path d="M11.7941 8.19659V6.81058C9.98303 6.73412 9.92501 5.08863 9.92501 4.93401V4.92236H8.52541V10.3176C8.52531 10.5508 8.45168 10.778 8.315 10.9669C8.17832 11.1557 7.98556 11.2967 7.76413 11.3697C7.5427 11.4427 7.30389 11.4441 7.08167 11.3735C6.85945 11.3029 6.66514 11.1641 6.52639 10.9767C6.38764 10.7893 6.31151 10.563 6.30884 10.3298C6.30617 10.0967 6.37709 9.86863 6.51151 9.67812C6.64593 9.48762 6.83701 9.34436 7.05755 9.26873C7.2781 9.19309 7.51688 9.18894 7.73992 9.25685V7.82788C7.63244 7.81442 7.5242 7.80785 7.41587 7.80822C6.91936 7.80836 6.43405 7.95574 6.0213 8.23171C5.60855 8.50768 5.2869 8.89985 5.09704 9.35863C4.90718 9.8174 4.85762 10.3222 4.95465 10.8091C5.05167 11.2961 5.29091 11.7433 5.64212 12.0943C5.99332 12.4453 6.44072 12.6842 6.92772 12.7809C7.41473 12.8776 7.91947 12.8277 8.37811 12.6375C8.83676 12.4473 9.22871 12.1254 9.50441 11.7125C9.7801 11.2996 9.92715 10.8141 9.92696 10.3176C9.92696 10.2824 9.92695 10.2475 9.92453 10.2127V7.55602C10.569 8.14562 11.7941 8.19659 11.7941 8.19659Z" fill="white"/>
<path d="M9.54688 4.92236C9.61435 5.28985 9.81145 5.8644 10.386 6.20059C9.94689 5.68915 9.92481 5.02916 9.92481 4.93401V4.92236H9.54688Z" fill="#FF004F"/>
<path d="M11.7938 8.19677V6.81076C11.6551 6.80568 11.5171 6.78944 11.3811 6.76221V7.8533C11.3811 7.8533 10.156 7.80305 9.51207 7.21345V9.86944C9.51353 9.90415 9.5145 9.93911 9.5145 9.97431C9.51444 10.4285 9.39117 10.8742 9.15783 11.2638C8.92449 11.6535 8.58981 11.9726 8.18946 12.187C7.78911 12.4015 7.33807 12.5034 6.8844 12.4818C6.43073 12.4601 5.99143 12.3159 5.61328 12.0643C5.96104 12.4234 6.40813 12.6706 6.89724 12.774C7.38635 12.8774 7.89521 12.8324 8.35859 12.6448C8.82198 12.4572 9.21878 12.1355 9.49815 11.7209C9.77752 11.3063 9.92673 10.8177 9.92666 10.3178C9.92666 10.2826 9.92666 10.2476 9.92423 10.2129V7.55619C10.5687 8.14579 11.7938 8.19677 11.7938 8.19677Z" fill="#FF004F"/>
<path d="M7.32711 8.91378C7.05986 8.83227 6.7717 8.85464 6.52023 8.97641C6.26876 9.09818 6.07252 9.31038 5.97074 9.57058C5.86896 9.83078 5.86914 10.1198 5.97124 10.3799C6.07335 10.64 6.26986 10.8519 6.52148 10.9734C6.38397 10.7856 6.30905 10.5592 6.30733 10.3264C6.30561 10.0937 6.37718 9.86626 6.51189 9.67642C6.6466 9.48658 6.83763 9.34394 7.05792 9.26871C7.27821 9.19348 7.51658 9.18947 7.73927 9.25724V7.82827C7.63179 7.81481 7.52355 7.80824 7.41522 7.80861C7.38537 7.80861 7.356 7.80861 7.32638 7.81031L7.32711 8.91378Z" fill="#FF004F"/>
</g>
<defs>
<clipPath id="clip0_2_639">
<rect width="16" height="16" fill="white" transform="translate(0 0.5)"/>
</clipPath>
</defs>
</svg>
